HIERARCHY
ROOT Hips
{
	OFFSET 0.000000 0.000000 0.000000
	CHANNELS 6 Xposition Yposition Zposition Zrotation Yrotation Xrotation 
	JOINT LHipJoint
	{
		OFFSET 0.000000 0.000000 0.000000
		CHANNELS 3 Zrotation Yrotation Xrotation
		JOINT LeftUpLeg
		{
			OFFSET 1.363060 -1.794630 0.839290
			CHANNELS 3 Zrotation Yrotation Xrotation
			JOINT LeftLeg
			{
				OFFSET 2.448110 -6.726130 0.000000
				CHANNELS 3 Zrotation Yrotation Xrotation
				JOINT LeftFoot
				{
					OFFSET 2.562200 -7.039590 0.000000
					CHANNELS 3 Zrotation Yrotation Xrotation
					JOINT LeftToeBase
					{
						OFFSET 0.157640 -0.433110 2.322550
						CHANNELS 3 Zrotation Yrotation Xrotation
						End Site
						{
							OFFSET 0.000000 0.000000 0.000000
						}
					}
				}
			}
		}
	}
	JOINT RHipJoint
	{
		OFFSET 0.000000 0.000000 0.000000
		CHANNELS 3 Zrotation Yrotation Xrotation
		JOINT RightUpLeg
		{
			OFFSET -1.305520 -1.794630 0.839290
			CHANNELS 3 Zrotation Yrotation Xrotation
			JOINT RightLeg
			{
				OFFSET -2.542530 -6.985550 0.000000
				CHANNELS 3 Zrotation Yrotation Xrotation
				JOINT RightFoot
				{
					OFFSET -2.568260 -7.056230 0.000000
					CHANNELS 3 Zrotation Yrotation Xrotation
					JOINT RightToeBase
					{
						OFFSET -0.164730 -0.452590 2.363150
						CHANNELS 3 Zrotation Yrotation Xrotation
						End Site
						{
							OFFSET 0.000000 0.000000 0.000000
						}
					}
				}
			}
		}
	}
}
MOTION
Frames: 22
Frame Time: 0.008333
-1.599419 17.004318 -1.283067 11.710463 86.654305 32.087892 -9.860797 1.011551 3.639836 -13.253198 2.669426 -44.587441 -3.423239 0.253104 19.270061 -0.523776 -4.362657 -0.441491 -0.258600 -0.000000 -26.250600 10.252472 -4.735478 0.340092 8.471332 -11.050756 -9.656863 1.707687 -2.061570 29.964175 1.159604 18.207563 12.955163 5.675400 -0.000000 -73.021200
-1.421970 16.965597 -1.260425 18.229904 86.734814 38.579619 -9.665292 0.949027 3.552490 -13.488773 2.113092 -44.916550 -3.259741 0.425168 22.113194 -0.394790 -3.673252 -1.574809 -0.135900 0.000000 -23.433400 10.646863 -4.772307 0.244104 7.506104 -11.635857 -10.866434 1.481597 -2.303036 32.833948 1.008136 16.974030 12.866434 5.327300 0.000000 -74.051901
-1.249398 16.937720 -1.236800 23.110838 86.563776 43.372482 -9.444558 0.946327 3.455832 -13.752077 1.632481 -44.873317 -3.113755 0.548747 24.433173 -0.242721 -2.875828 -2.725963 -0.032400 -0.000000 -21.477700 11.041690 -4.707631 0.124255 6.482317 -12.112040 -12.027866 1.214541 -2.516853 35.693114 0.822165 15.041381 12.752413 4.760500 -0.000000 -74.685700
-1.080839 16.921463 -1.213341 26.199165 86.175193 46.321819 -9.246630 0.981806 3.349665 -14.049693 1.270139 -44.480363 -3.000139 0.623435 26.160506 -0.077548 -2.023151 -3.860641 0.042300 0.000000 -20.439200 11.381510 -4.562483 -0.008439 5.440339 -12.450384 -13.130159 0.923187 -2.702702 38.476371 0.591380 12.439371 12.574518 3.978300 -0.000000 -74.706800
-0.915418 16.916853 -1.191164 27.729041 85.630425 47.672055 -9.090972 1.034339 3.232339 -14.366079 1.051313 -43.778019 -2.923783 0.650043 27.286898 0.092232 -1.155752 -4.950144 0.084699 0.000000 -20.250800 11.647490 -4.360945 -0.140339 4.428564 -12.636506 -14.173187 0.626238 -2.862952 41.129125 0.304161 9.258607 12.287386 3.004800 0.000001 -73.875900
-0.752229 16.923342 -1.171033 28.068750 84.981868 47.798826 -8.979133 1.091983 3.102746 -14.679871 0.987300 -42.809137 -2.882696 0.631567 27.839467 0.260754 -0.296767 -5.962644 0.096301 0.000000 -20.773199 11.843017 -4.121210 -0.259616 3.482440 -12.666711 -15.157773 0.339836 -2.999351 43.610765 -0.045966 5.650840 11.843589 1.891000 -0.000000 -72.005300
-0.590203 16.939786 -1.154283 27.370411 84.268153 46.868895 -8.922271 1.146546 2.963903 -14.945596 1.097925 -41.650251 -2.868959 0.577280 27.893587 0.421455 0.522526 -6.870137 0.081400 0.000000 -21.817100 11.960939 -3.861715 -0.352115 2.663432 -12.521414 -16.089681 0.075953 -3.110435 45.886307 -0.455782 1.793902 11.207937 0.707300 -0.000000 -69.012900
-0.428610 16.964778 -1.140933 25.987445 83.514737 45.241770 -8.910823 1.197917 2.817157 -15.151881 1.372698 -40.345201 -2.874784 0.493761 27.520036 0.570298 1.294637 -7.636749 0.048600 -0.000000 -23.153100 12.018681 -3.595654 -0.411918 1.978632 -12.216181 -16.974444 -0.156801 -3.198420 47.935820 -0.908934 -2.089865 10.357674 -0.450500 -0.000000 -64.957900
-0.266657 16.996621 -1.131127 24.117189 82.740099 43.126806 -8.942529 1.247250 2.666149 -15.282861 1.804409 -38.954432 -2.891608 0.391008 26.814990 0.702256 2.002640 -8.236873 0.007400 -0.000000 -24.538100 12.024228 -3.336908 -0.433493 1.445965 -11.761690 -17.822223 -0.354550 -3.264589 49.743109 -1.379337 -5.795071 9.294855 -1.488100 0.000000 -60.054400
-0.103885 17.033597 -1.124219 22.005063 81.959040 40.775959 -9.007147 1.298308 2.513483 -15.343982 2.370082 -37.518446 -2.912948 0.277563 25.868103 0.813799 2.638440 -8.650958 -0.032400 -0.000000 -25.758800 11.993108 -3.095286 -0.417486 1.055178 -11.188576 -18.639478 -0.516631 -3.312244 51.299810 -1.836000 -9.137956 8.044588 -2.324000 -0.000000 -54.588300
0.060106 17.074084 -1.119606 19.796148 81.188529 38.345058 -9.099596 1.354414 2.363677 -15.338852 3.048628 -36.086239 -2.933865 0.162892 24.775775 0.901346 3.186458 -8.874449 -0.062400 -0.000000 -26.671100 11.933217 -2.878768 -0.364658 0.805557 -10.524514 -19.437115 -0.645105 -3.342833 52.601956 -2.251314 -11.992362 6.658988 -2.912200 -0.000000 -48.941000
0.225455 17.116604 -1.116305 17.635586 80.447329 35.986451 -9.211995 1.418957 2.220682 -15.281470 3.812239 -34.692900 -2.952171 0.054238 23.618665 0.963012 3.635512 -8.913923 -0.076800 -0.000000 -27.220000 11.853926 -2.690809 -0.279168 0.683091 -9.806567 -20.223633 -0.742629 -3.358074 53.652551 -2.603920 -14.280860 5.204959 -3.243500 -0.000000 -43.469200
0.392123 17.159996 -1.113203 15.639735 79.755473 33.820229 -9.336443 1.494513 2.087624 -15.190776 4.631035 -33.359718 -2.967923 -0.043669 22.457009 0.998545 3.978059 -8.786587 -0.073300 -0.000000 -27.434000 11.763312 -2.531296 -0.167704 0.667034 -9.075328 -21.004521 -0.811702 -3.359834 54.460219 -2.879964 -15.971698 3.755837 -3.343300 0.000000 -38.487000
0.559964 17.203334 -1.109286 13.875328 79.132000 31.917646 -9.467223 1.582567 1.968616 -15.082773 5.476538 -32.104300 -2.982602 -0.128335 21.332894 1.008994 4.208357 -8.518930 -0.052700 0.000000 -27.402600 11.666190 -2.398168 -0.036501 0.739820 -8.367507 -21.788884 -0.854604 -3.349487 55.038731 -3.072692 -17.071444 2.381734 -3.261100 0.000000 -34.228500
0.728506 17.246036 -1.103576 12.408377 78.591928 30.338784 -9.597716 1.683372 1.863998 -14.976236 6.320816 -30.915817 -2.998442 -0.200522 20.256607 0.996988 4.330000 -8.138099 -0.018300 0.000001 -27.254700 11.568471 -2.286634 0.103640 0.871894 -7.723427 -22.574038 -0.873397 -3.329820 55.402627 -3.180465 -17.610904 1.149240 -3.057500 0.000000 -30.902300
0.897478 17.287728 -1.095425 11.247370 78.144055 29.091167 -9.724822 1.796109 1.776239 -14.879847 7.141024 -29.789725 -3.017257 -0.262213 19.226459 0.965813 4.349075 -7.672091 0.025500 0.000000 -27.128400 11.472286 -2.192204 0.245580 1.046627 -7.169945 -23.366556 -0.870566 -3.302629 55.570630 -3.206849 -17.645220 0.111287 -2.792801 -0.000000 -28.636200
1.066352 17.328220 -1.084526 10.393192 77.789575 28.165465 -9.846140 1.918750 1.703492 -14.797942 7.920915 -28.699692 -3.039994 -0.316672 18.221427 0.919081 4.277692 -7.142175 0.074300 -0.000000 -27.154500 11.380008 -2.109461 0.379002 1.244616 -6.730926 -24.160827 -0.848688 -3.270521 55.559870 -3.159058 -17.243475 -0.694942 -2.516000 0.000000 -27.511300
1.234879 17.367418 -1.070909 9.810903 77.523114 27.522248 -9.961640 2.048760 1.645442 -14.727146 8.651066 -27.631056 -3.066598 -0.366916 17.220931 0.860277 4.128949 -6.563874 0.124400 0.000000 -27.435700 11.291731 -2.034261 0.498449 1.459770 -6.414913 -24.960630 -0.810585 -3.235230 55.390895 -3.048434 -16.489236 -1.256385 -2.259100 -0.000000 -27.507600
1.402727 17.405275 -1.054876 9.455108 77.331827 27.106157 -10.072450 2.182935 1.598288 -14.658627 9.331263 -26.561076 -3.095959 -0.415343 16.202084 0.792459 3.917203 -5.944638 0.173000 -0.000000 -28.039400 11.207034 -1.962817 0.597520 1.689206 -6.223299 -25.759848 -0.758549 -3.198624 55.082813 -2.888636 -15.470021 -1.589973 -2.034300 -0.000001 -28.487000
1.569787 17.441716 -1.036896 9.265006 77.198936 26.850613 -10.180790 2.318384 1.558276 -14.580883 9.968459 -25.477435 -3.126379 -0.463044 15.152450 0.718139 3.654888 -5.286472 0.218400 -0.000000 -28.988600 11.124343 -1.892718 0.673744 1.938301 -6.144992 -26.556285 -0.694251 -3.161924 54.655831 -2.694940 -14.274008 -1.740419 -1.839500 -0.000000 -30.206500
1.736006 17.476594 -1.017493 9.172073 77.105654 26.683607 -10.289381 2.452657 1.521655 -14.481526 10.574844 -24.378432 -3.155947 -0.509719 14.071949 0.639416 3.351972 -4.589127 0.259101 0.000000 -30.259700 11.041253 -1.822793 0.728099 2.217890 -6.157824 -27.348816 -0.618823 -3.125639 54.129818 -2.482606 -12.984136 -1.770358 -1.665700 -0.000000 -32.374100
1.901414 17.509688 -0.997114 9.113041 77.033041 26.541006 -10.400391 2.584083 1.484311 -14.350996 11.165104 -23.269038 -3.182939 -0.553957 12.972210 0.558139 3.016510 -3.852178 0.293600 -0.000000 -31.786300 10.955515 -1.752855 0.764087 2.539039 -6.232265 -28.135499 -0.532848 -3.089744 53.520854 -2.265205 -11.672319 -1.747684 -1.503600 -0.000000 -34.719200
